<svg xmlns="http://www.w3.org/2000/svg" width="256" height="256"><path fill-opacity=".016" d="M0 128.004v128.004l128.25-.254 128.25-.254.254-127.75L257.008 0H0v128.004m.485.496c0 70.4.119 99.053.265 63.672.146-35.38.146-92.98 0-128C.604 29.153.485 58.1.485 128.5" fill="#1976D2" fill-rule="evenodd"/><path fill-opacity=".207" d="M111.635 64.063c-54.878 7.621-98.716 48.356-109.619 101.86C.907 171.363 0 179.244 0 183.437v7.623l12.75-.28 12.75-.28.686-8.28c2.534-30.569 19.097-58.33 45.314-75.952 10.301-6.923 22.175-11.865 35.984-14.974 9.427-2.122 31.614-2.12 41.05.004 32.065 7.218 56.913 26.529 71.032 55.202 6.043 12.272 9.223 23.357 10.248 35.72l.686 8.28h26l.193-9c.107-4.95-.084-8.325-.424-7.5-.34.825-1.194-1.875-1.898-6-2.839-16.642-11.51-36.769-22.249-51.646l-5.88-8.146 7.036-5.354c3.87-2.945 7.686-5.831 8.48-6.414 1.18-.867-.677-3.815-10.233-16.237-6.422-8.348-12.12-15.453-12.662-15.788-.543-.335-6.146 3.324-12.452 8.131l-11.465 8.741-10.723-5.064C165.914 67.577 151.892 64.171 132 63.539c-7.425-.236-16.589 0-20.365.524M59.981 130.52l-3.412 3.519L69.02 146.52 81.47 159l-12.469 12.499-12.469 12.499 3.658 3.658 3.658 3.658 11.648-10.875c6.407-5.982 12.045-11.565 12.528-12.407.699-1.218 3.513 1.088 13.708 11.235l12.829 12.767 3.706-3.796 3.706-3.795-12.487-12.457-12.487-12.457 12.517-12.545 12.518-12.545-4.033-3.938-4.033-3.939-12.484 12.454L89 151.47l-12.264-12.235C69.99 132.506 64.228 127 63.932 127c-.297 0-2.075 1.584-3.951 3.52m78 0-3.412 3.519 12.451 12.481L159.47 159l-12.45 12.48-12.451 12.481 3.412 3.519c1.876 1.936 3.893 3.52 4.481 3.52.588 0 6.456-5.4 13.039-12.001l11.969-12.001 12.546 12.518 12.545 12.518 3.706-3.796 3.706-3.795-12.487-12.457-12.487-12.457 12.517-12.545 12.518-12.545-4.033-3.938-4.033-3.939-12.484 12.454L167 151.47l-12.264-12.235C147.99 132.506 142.228 127 141.932 127c-.297 0-2.075 1.584-3.951 3.52M.355 182.5c-.003 4.95.166 7.101.376 4.78.209-2.321.212-6.371.005-9-.206-2.629-.378-.73-.381 4.22" fill="#1976D2" fill-rule="evenodd"/><path fill-opacity=".663" d="M116.636 64.064C68.082 68.371 25.73 100.383 7.979 146.192 4.504 155.16.99 171.031.328 180.75l-.63 9.25h24.981l1.149-9.349c5.7-46.383 39.387-82.226 84.706-90.129 44.889-7.828 89.296 14.88 109.469 55.978 5.707 11.626 8.363 20.608 10.045 33.972l1.206 9.586 12.623-.279 12.623-.279.264-7c.146-3.85-.101-6.445-.548-5.767-.488.74-1.281-1.972-1.98-6.769-2.49-17.082-12.003-39.517-22.896-53.998-2.937-3.904-5.34-7.265-5.34-7.468 0-.204 3.6-3.155 8-6.559 4.4-3.404 8-6.445 8-6.758C242 94.548 218.913 64 218.435 64c-.166 0-5.588 4.014-12.049 8.919l-11.748 8.919-8.873-4.456c-21.378-10.737-45.609-15.405-69.129-13.318m-14.892 75.682L89.01 152.48l-12.485-12.455-12.486-12.456-3.54 3.431-3.54 3.432L69.48 146.98l12.521 12.549-12.514 12.484-12.514 12.484 3.602 3.398 3.602 3.398 12.412-12.381L89 166.53l12.48 12.45 12.481 12.451L117.5 188l3.54-3.431-12.02-12.049C102.409 165.893 97 160.034 97 159.5c0-.534 5.505-6.49 12.234-13.235l12.234-12.263-3.495-3.495-3.495-3.495-12.734 12.734m78 0L167.01 152.48l-12.485-12.455-12.486-12.456-3.54 3.431-3.54 3.432 12.521 12.548 12.521 12.549-12.371 12.341-12.37 12.341 3.62 3.348 3.62 3.347 12.25-12.188L167 166.53l12.48 12.45 12.481 12.451L195.5 188l3.54-3.431-12.02-12.049c-6.611-6.627-12.02-12.486-12.02-13.02 0-.534 5.505-6.49 12.234-13.235l12.234-12.263-3.495-3.495-3.495-3.495-12.734 12.734M.328 183.5c.005 3.85.185 5.302.402 3.228.216-2.075.213-5.225-.008-7-.221-1.776-.398-.078-.394 3.772" fill="#1976D2" fill-rule="evenodd"/><path fill-opacity=".97" d="M109.665 65.03C49.807 74.461 5.385 121.978.386 181.924L-.288 190H25v-3.869c0-2.128.675-7.74 1.5-12.472 6.818-39.095 36.404-71.166 75.5-81.839 7.381-2.015 10.803-2.32 26-2.32s18.619.305 26 2.32c41.898 11.438 73.122 48.236 76.631 90.31l.661 7.928 12.604-.279 12.604-.279.27-5.5c.149-3.025-.092-4.955-.534-4.29-.469.705-1.314-2.529-2.026-7.754-2.478-18.197-12.212-41.581-23.567-56.616l-5.408-7.159 8.386-6.331c4.612-3.482 8.272-6.626 8.132-6.986-.139-.361-5.463-7.419-11.831-15.684l-11.578-15.028-11.757 9.034-11.756 9.033-9.166-4.569c-9.947-4.959-20.619-8.769-31.341-11.191-8.165-1.844-36.31-2.745-44.659-1.429M.3 185c0 3.025.187 4.262.416 2.75.229-1.512.229-3.988 0-5.5S.3 181.975.3 185" fill="#1976D2" fill-rule="evenodd"/></svg>